<?xml version="1.0" encoding="UTF-8" standalone="no"?>
<!DOCTYPE svg PUBLIC "-//W3C//DTD SVG 1.1//EN"
 "http://www.w3.org/Graphics/SVG/1.1/DTD/svg11.dtd">
<!-- Generated by graphviz version 2.38.0 (20140413.2041)
 -->
<!-- Title: G Pages: 1 -->
<svg width="592pt" height="329pt"
 viewBox="0.00 0.00 592.16 328.59" xmlns="http://www.w3.org/2000/svg" xmlns:xlink="http://www.w3.org/1999/xlink">
<g id="graph0" class="graph" transform="scale(1 1) rotate(0) translate(4 324.594)">
<title>G</title>
<polygon fill="white" stroke="none" points="-4,4 -4,-324.594 588.156,-324.594 588.156,4 -4,4"/>
<!-- Application -->
<g id="node1" class="node"><title>Application</title>
<polygon fill="none" stroke="black" points="0,-14.0945 0,-86.0945 84.4893,-86.0945 84.4893,-14.0945 0,-14.0945"/>
<text text-anchor="middle" x="42.2446" y="-47.3945" font-family="arial" font-size="14.00">Application</text>
</g>
<!-- Gateway -->
<g id="node2" class="node"><title>Gateway</title>
<polygon fill="none" stroke="black" points="283.309,-32.0945 283.309,-320.094 354.557,-320.094 354.557,-32.0945 283.309,-32.0945"/>
<text text-anchor="middle" x="318.933" y="-173.394" font-family="arial" font-size="14.00">Gateway</text>
</g>
<!-- Application&#45;&gt;Gateway -->
<g id="edge1" class="edge"><title>Application&#45;&gt;Gateway</title>
<path fill="none" stroke="black" d="M93.8847,-73.3231C145.568,-97.0301 224.963,-133.449 274.053,-155.966"/>
<polygon fill="black" stroke="black" points="95.2144,-70.0824 84.6657,-69.0944 92.2958,-76.445 95.2144,-70.0824"/>
<polygon fill="black" stroke="black" points="272.602,-159.152 283.151,-160.14 275.521,-152.789 272.602,-159.152"/>
<text text-anchor="middle" x="162.41" y="-135.993" font-family="arial" font-size="14.00">Gateway Auth Only</text>
</g>
<!-- ServiceC -->
<g id="node5" class="node"><title>ServiceC</title>
<polygon fill="none" stroke="black" points="507.474,-5.09446 507.474,-77.0945 584.156,-77.0945 584.156,-5.09446 507.474,-5.09446"/>
<text text-anchor="middle" x="545.815" y="-38.3945" font-family="arial" font-size="14.00">Service C</text>
</g>
<!-- Application&#45;&gt;ServiceC -->
<g id="edge2" class="edge"><title>Application&#45;&gt;ServiceC</title>
<path fill="none" stroke="red" stroke-dasharray="5,2" d="M84.7019,-38.0191C124.278,-27.1617 185.79,-12.0231 240.33,-5.99582 309.777,1.67876 328.144,2.15853 397.536,-5.99582 431.514,-9.98859 469.011,-18.9939 497.667,-26.8828"/>
<polygon fill="red" stroke="red" points="496.84,-30.2859 507.414,-29.6165 498.731,-23.5459 496.84,-30.2859"/>
<text text-anchor="middle" x="318.933" y="-10.9931" font-family="arial" font-size="14.00">Not Authenticated Failure</text>
</g>
<!-- ServiceA -->
<g id="node3" class="node"><title>ServiceA</title>
<polygon fill="none" stroke="black" points="508.246,-209.094 508.246,-281.094 583.384,-281.094 583.384,-209.094 508.246,-209.094"/>
<text text-anchor="middle" x="545.815" y="-242.394" font-family="arial" font-size="14.00">Service A</text>
</g>
<!-- Gateway&#45;&gt;ServiceA -->
<g id="edge3" class="edge"><title>Gateway&#45;&gt;ServiceA</title>
<path fill="none" stroke="black" d="M364.259,-189.695C402.955,-201.568 458.922,-218.74 498.263,-230.811"/>
<polygon fill="black" stroke="black" points="365.165,-186.312 354.578,-186.724 363.111,-193.004 365.165,-186.312"/>
<polygon fill="black" stroke="black" points="497.299,-234.176 507.886,-233.764 499.352,-227.484 497.299,-234.176"/>
<text text-anchor="middle" x="452.505" y="-230.993" font-family="arial" font-size="14.00">Mutual Auth</text>
</g>
<!-- ServiceB -->
<g id="node4" class="node"><title>ServiceB</title>
<polygon fill="none" stroke="black" points="507.86,-118.094 507.86,-190.094 583.77,-190.094 583.77,-118.094 507.86,-118.094"/>
<text text-anchor="middle" x="545.815" y="-151.394" font-family="arial" font-size="14.00">Service B</text>
</g>
<!-- Gateway&#45;&gt;ServiceB -->
<g id="edge4" class="edge"><title>Gateway&#45;&gt;ServiceB</title>
<path fill="none" stroke="black" d="M364.76,-171.709C403.162,-167.952 458.302,-162.558 497.425,-158.731"/>
<polygon fill="black" stroke="black" points="364.19,-168.248 354.578,-172.705 364.871,-175.215 364.19,-168.248"/>
<polygon fill="black" stroke="black" points="497.895,-162.201 507.507,-157.744 497.213,-155.235 497.895,-162.201"/>
<text text-anchor="middle" x="452.505" y="-170.993" font-family="arial" font-size="14.00">Mutual Auth</text>
</g>
<!-- Gateway&#45;&gt;ServiceC -->
<g id="edge5" class="edge"><title>Gateway&#45;&gt;ServiceC</title>
<path fill="none" stroke="black" d="M363.41,-149.995C402.19,-126.714 458.801,-92.7298 498.439,-68.9346"/>
<polygon fill="black" stroke="black" points="361.35,-147.149 354.578,-155.297 364.953,-153.15 361.35,-147.149"/>
<polygon fill="black" stroke="black" points="500.354,-71.8673 507.126,-63.7195 496.751,-65.8657 500.354,-71.8673"/>
<text text-anchor="middle" x="452.505" y="-120.993" font-family="arial" font-size="14.00">Mutual Auth</text>
</g>
</g>
</svg>
