<svg enable-background="new 0 0 600 735" height="735" viewBox="0 0 600 735" width="600" xmlns="http://www.w3.org/2000/svg"><g fill="#c00"><path d="m190.485 624.114c-7.601-6.282-18.693-9.422-33.287-9.422h-38.43V735h25.511v-42.788h10.944c14.922.0 26.43-3.428 34.52-10.289 8.094-6.856 12.14-16.759 12.14-29.707.0-12.453-3.8-21.82-11.398-28.102zm-20.201 42.544c-3.896 3.102-9.766 4.647-17.609 4.647h-8.396v-35.711h11.603c6.965.0 12.081 1.426 15.346 4.277 3.265 2.854 4.897 7.27 4.897 13.25.0 5.926-1.947 10.439-5.841 13.537z"/><path d="m63.879 614.198-63.035 120.802h27.765l14.153-28.638h35.022L77.774 735h24.438V614.198zm13.905 70.771H53.048s22.026-45.998 24.441-52.584l.295-.039z"/><path d="m213.847 614.692h25.512V735h-25.512z"/></g><path d="m577.043 671.637c0 6.473.656 33.162.656 33.162l-52.253-90.106h-32.175V735h22.794v-56.614c0-6.859-.822-34.397-.822-34.397L567.576 735H6e2V614.692h-22.957z" fill="#243446"/><path d="m438.789 614.198-54.296 104.048V614.692H349.77l-30.202 91.998h-.494l-28.47-91.998h-34.729V735h22.797v-55.958c0-6.417-.825-38.429-.825-38.429L306.812 735h23.373l31.022-94.221s-.288 24.466-.371 27.976c-.081 3.514-.124 6.614-.124 9.302V735h43.922l14.149-28.638h35.022l-.01 28.638h24.442V614.198zm15.017 70.771H429.07s22.03-45.998 24.441-52.583l.294-.04v52.623z" fill="#243446"/><path d="m6e2.0H385.048L69.286 604h231.956l20.325-6.784L339.739 604h97.835l28.779-6.784L522.715 604H6e2z" fill="#243446"/><path d="m500.541 469.616c.624-4.534-1.154-13.725-.699-18.264 2.733-27.099 12.274-50.405 23.681-106.342l8.178 38.835-10.794 5.948-4.098 15.881s5.248.583 5.947 1.985c1.051 2.101-2.977 8.906-2.977 8.906s21.158 9.708 27.774 6.976c5.752-2.375 10.343-17.091 13.365-34.667 3.761-21.863 5.09-48.149 3.206-60.608-.579-3.829-8.639-9.062-8.53-12.933 1.163-40.853 2.702-93.684-15.843-116.481-8.307-10.209-28.528-12.949-44.936-27.432-9.759-8.613-10.23-40.605-11.725-67.798-.593-10.765-33.546-22.103-48.087-9.67-15.376 13.142-9.118 47.033-9.118 47.033s12.084 4.448 13.468 8.131c.815 2.171-2.825 8.833-2.825 8.833-44.058-6.8-87.035-7.388-94.62-3.712-13.761 6.668-21.703 121.631-21.703 121.631v12.234s-7.979 10.351-8.725 14.538c-.142.808 5.884 35.636 10.505 66.07 2.768 18.256.698 35.771 8.847 41.047 6.772 4.383 31.302-7.839 31.302-7.839s-4.502-7.655-3.319-10.01c.79-1.582 6.704-2.23 6.704-2.23l-5.994-18.876-14.589-6.24s15.867-44.151 17.249-63.034c.281-3.864-7.803-13.387-7.803-13.387l30.12-53.562s27.055 60.021 26.776 81.451c-.455 35.771-34.514 101.665-55.849 135.831-7.151 11.451-27.928 21.052-34.223 33.003-12.733 24.185-8.92 101.131-8.92 101.131s-7.21 11.856-11.046 17.892h38.497l-7.944-22.34s33.076-75.304 51.163-99.044c2.575-3.393 9.697-8.361 12.704-11.379 17.327-17.378 65.256-73.299 65.256-73.299s5.114 47.771 1.168 63.028c-2.389 9.24-17.049 23.732-19.129 33.055-1.729 7.752 7.378 85.445 7.378 85.445s-11.998 16.42-12.761 24.533h85.141l-48.896-23.368c.002.003 23.003-83.811 26.724-110.902z" fill="#d5d5d5"/><path d="m458.8 300.169s7.744-47.354 8.234-63.401c.364-11.875-4.698-47.289-4.698-47.289l-8.552-17.607s6.93-.818 12.252.0c4.94.76 9.381 3.518 9.381 3.518l-10.06 13.585s13.886 36.203 16.649 48.792c3.636 16.559 8.995 67.438 8.995 67.438s-4.821 7.274-6.65 9.531c-2.614 3.223-11.36 12.104-11.36 12.104s-4.579-11.109-6.473-14.632c-1.693-3.15-7.718-12.039-7.718-12.039z" fill="#c00"/></svg>