<svg id="bpl-section-divider-stars" width="100%" height="100%" viewBox="0 0 67 16" xmlns="http://www.w3.org/2000/svg" xmlns:xlink="http://www.w3.org/1999/xlink" style="fill-rule:evenodd;clip-rule:evenodd;stroke-linejoin:round;stroke-miterlimit:2"><g transform="matrix(1,0,0,1,-2.32803,-0.4995)"><g transform="matrix(1,0,0,1,28,0)"><path d="M3.612 15.443C3.226 15.641 2.788 15.294 2.866 14.851l.83-4.73L.173 6.765C-.156 6.451.015 5.877.456 5.815L5.354 5.119 7.538.792c.197-.39.73-.39.927.0l2.184 4.327L15.547 5.815C15.988 5.877 16.159 6.451 15.829 6.765l-3.522 3.356.83 4.73C13.215 15.294 12.777 15.641 12.391 15.443L8 13.187 3.611 15.443H3.612z" style="fill:#3d5e81;fill-rule:nonzero"/></g><g transform="matrix(0.756501,0,0,0.756501,12.947,3.0568)"><path d="M3.612 15.443C3.226 15.641 2.788 15.294 2.866 14.851l.83-4.73L.173 6.765C-.156 6.451.015 5.877.456 5.815L5.354 5.119 7.538.792c.197-.39.73-.39.927.0l2.184 4.327L15.547 5.815C15.988 5.877 16.159 6.451 15.829 6.765l-3.522 3.356.83 4.73C13.215 15.294 12.777 15.641 12.391 15.443L8 13.187 3.611 15.443H3.612z" style="fill:#3d5e81;fill-rule:nonzero"/></g><g transform="matrix(0.756501,0,0,0.756501,46.947,3.0568)"><path d="M3.612 15.443C3.226 15.641 2.788 15.294 2.866 14.851l.83-4.73L.173 6.765C-.156 6.451.015 5.877.456 5.815L5.354 5.119 7.538.792c.197-.39.73-.39.927.0l2.184 4.327L15.547 5.815C15.988 5.877 16.159 6.451 15.829 6.765l-3.522 3.356.83 4.73C13.215 15.294 12.777 15.641 12.391 15.443L8 13.187 3.611 15.443H3.612z" style="fill:#3d5e81;fill-rule:nonzero"/></g><g transform="matrix(1,0,0,3.04005,1.40759,-22.2737)"><rect x=".92" y="10.698" width="8.561" height=".493" style="fill:#3d5e81"/></g><g transform="matrix(1,0,0,3.04005,59.7991,-22.2737)"><rect x=".92" y="10.698" width="8.561" height=".493" style="fill:#3d5e81"/></g></g></svg>