<svg width="100%" height="100%" viewBox="0 0 434 88" xmlns="http://www.w3.org/2000/svg" xmlns:xlink="http://www.w3.org/1999/xlink" style="fill-rule:evenodd;clip-rule:evenodd;stroke-linejoin:round;stroke-miterlimit:2"><g transform="matrix(1,0,0,1,-109.661,-601.305)"><g id="Layer-1"><g transform="matrix(1,0,0,1,150.023,-4.01563)"><g transform="matrix(0.654171,0,0,0.654171,111.687,659.229)"><path d="M0-16.376c-3.896 3.102-9.766 4.647-17.609 4.647h-8.396v-35.71h11.603c6.965.0 12.081 1.425 15.345 4.277 3.265 2.853 4.898 7.269 4.898 13.25.0 5.925-1.947 10.437-5.841 13.536M20.201-58.92c-7.6-6.282-18.693-9.422-33.287-9.422h-38.43V51.966h25.511V9.178h10.944c14.922.0 26.43-3.428 34.52-10.289 8.094-6.857 12.14-16.759 12.14-29.707.0-12.454-3.8-21.82-11.398-28.102" style="fill:#c00;fill-rule:nonzero"/></g><g transform="matrix(0.654171,0,0,0.654171,0.291949,614.521)"><rect x="213.847" y="0" width="25.512" height="120.308" style="fill:#c00"/></g><g transform="matrix(0.654171,0,0,0.654171,377.777,655.972)"><path d="M0-6.419C0 .054.656 26.743.656 26.743L-51.597-63.363H-83.771V56.944h22.793V.33C-60.978-6.529-61.8-34.067-61.8-34.067L-9.467 56.944H22.957V-63.363H0V-6.419z" style="fill:#243446;fill-rule:nonzero"/></g><g transform="matrix(0.654171,0,0,0.654171,297.158,646.927)"><path d="M0 20.74H-24.735S-2.705-25.258-.294-31.843L0-31.883V20.74zM-15.017-50.031-69.313 54.017V-49.536h-34.723l-30.202 91.998h-.494l-28.47-91.998h-34.73V70.771h22.797V14.813C-175.135 8.396-175.96-23.615-175.96-23.615l28.966 94.386h23.373l31.022-94.22S-92.887 1.016-92.97 4.526C-93.051 8.04-93.094 11.14-93.094 13.828V70.771h43.922l14.15-28.637H0L-.011 70.771H24.432V-50.031H-15.017z" style="fill:#243446;fill-rule:nonzero"/></g><g transform="matrix(0.654171,0,0,0.654171,51.1761,646.927)"><path d="M0 20.74H-24.736S-2.71-25.258-.295-31.844L0-31.883V20.74zM-13.905-50.031-76.94 70.771h27.764l14.154-28.637H0L-.01 70.771H24.428V-50.031H-13.905z" style="fill:#c00;fill-rule:nonzero"/></g></g><g transform="matrix(0.168271,0,0,0.168271,59.471,586.91)"><g transform="matrix(1,0,0,1,500.541,215.792)"><path d="M0 253.824C.624 249.29-1.154 240.099-.699 235.56c2.733-27.098 12.274-50.405 23.68-106.341l8.178 38.834L20.365 174.002l-4.097 15.881S21.516 190.466 22.215 191.868C23.266 193.969 19.238 200.774 19.238 200.774s21.158 9.708 27.775 6.976c5.752-2.375 10.342-17.091 13.365-34.667 3.761-21.863 5.09-48.15 3.206-60.609C63.005 108.645 54.945 103.412 55.054 99.542 56.217 58.689 57.756 5.858 39.211-16.94 30.904-27.149 10.683-29.889-5.725-44.371c-9.758-8.614-10.23-40.606-11.724-67.798-.593-10.765-33.546-22.103-48.087-9.67-15.376 13.142-9.118 47.033-9.118 47.033S-62.57-70.358-61.187-66.675C-60.371-64.504-64.012-57.842-64.012-57.842-108.069-64.642-151.047-65.23-158.632-61.554c-13.761 6.668-21.703 121.631-21.703 121.631V72.311S-188.314 82.662-189.06 86.849C-189.201 87.657-183.176 122.485-178.555 152.92-175.787 171.176-177.856 188.691-169.708 193.967-162.936 198.349-138.406 186.128-138.406 186.128S-142.908 178.472-141.726 176.118C-140.936 174.536-135.021 173.887-135.021 173.887l-5.995-18.876L-155.604 148.771s15.867-44.151 17.249-63.034C-138.074 81.873-146.158 72.35-146.158 72.35l30.12-53.561s27.055 60.02 26.776 81.451C-89.717 136.011-123.775 201.905-145.11 236.071-152.262 247.522-173.038 257.123-179.333 269.074-192.066 293.259-188.253 370.205-188.253 370.205S-195.463 382.061-199.299 388.096h38.497L-168.746 365.757s33.076-75.304 51.163-99.044C-115.008 263.32-107.886 258.351-104.879 255.334c17.327-17.378 65.256-73.299 65.256-73.299s5.114 47.77 1.168 63.028C-40.844 254.303-55.504 268.796-57.584 278.118-59.313 285.87-50.206 363.563-50.206 363.563s-11.998 16.42-12.761 24.533H22.174l-48.896-23.368S-3.721 280.915.0 253.824" style="fill:#d5d5d5;fill-rule:nonzero;stroke:#000;stroke-width:5.94px"/></g><g transform="matrix(1,0,0,1,458.8,197.723)"><path d="M0 102.446S7.744 55.092 8.234 39.045C8.599 27.17 3.536-8.244 3.536-8.244L-5.016-25.852S1.914-26.67 7.236-25.852C12.177-25.092 16.617-22.334 16.617-22.334L6.558-8.749S20.443 27.454 23.207 40.043c3.636 16.558 8.995 67.438 8.995 67.438S27.381 114.756 25.552 117.012c-2.615 3.223-11.361 12.104-11.361 12.104s-4.579-11.109-6.472-14.632C6.025 111.335.0 102.446.0 102.446" style="fill:#c00;fill-rule:nonzero"/></g></g></g></g></svg>