<?xml version="1.0" encoding="UTF-8" standalone="no"?>
<!DOCTYPE svg PUBLIC "-//W3C//DTD SVG 1.1//EN" "http://www.w3.org/Graphics/SVG/1.1/DTD/svg11.dtd">
<svg width="100%" height="100%" viewBox="0 0 434 88" version="1.1" xmlns="http://www.w3.org/2000/svg" xmlns:xlink="http://www.w3.org/1999/xlink" xml:space="preserve" xmlns:serif="http://www.serif.com/" style="fill-rule:evenodd;clip-rule:evenodd;stroke-linejoin:round;stroke-miterlimit:2;">
    <g transform="matrix(1,0,0,1,-109.661,-601.305)">
        <g id="Layer-1" serif:id="Layer 1">
            <g transform="matrix(1,0,0,1,150.023,-4.01563)">
                <g transform="matrix(0.654171,0,0,0.654171,111.687,659.229)">
                    <path d="M0,-16.376C-3.896,-13.274 -9.766,-11.729 -17.609,-11.729L-26.005,-11.729L-26.005,-47.439L-14.402,-47.439C-7.437,-47.439 -2.321,-46.014 0.943,-43.162C4.208,-40.309 5.841,-35.893 5.841,-29.912C5.841,-23.987 3.894,-19.475 0,-16.376M20.201,-58.92C12.601,-65.202 1.508,-68.342 -13.086,-68.342L-51.516,-68.342L-51.516,51.966L-26.005,51.966L-26.005,9.178L-15.061,9.178C-0.139,9.178 11.369,5.75 19.459,-1.111C27.553,-7.968 31.599,-17.87 31.599,-30.818C31.599,-43.272 27.799,-52.638 20.201,-58.92" style="fill:rgb(204,0,0);fill-rule:nonzero;"/>
                </g>
                <g transform="matrix(0.654171,0,0,0.654171,0.291949,614.521)">
                    <rect x="213.847" y="0" width="25.512" height="120.308" style="fill:rgb(204,0,0);"/>
                </g>
                <g transform="matrix(0.654171,0,0,0.654171,377.777,655.972)">
                    <path d="M0,-6.419C0,0.054 0.656,26.743 0.656,26.743L-51.597,-63.363L-83.771,-63.363L-83.771,56.944L-60.978,56.944L-60.978,0.33C-60.978,-6.529 -61.8,-34.067 -61.8,-34.067L-9.467,56.944L22.957,56.944L22.957,-63.363L0,-63.363L0,-6.419Z" style="fill:rgb(36,52,70);fill-rule:nonzero;"/>
                </g>
                <g transform="matrix(0.654171,0,0,0.654171,297.158,646.927)">
                    <path d="M0,20.74L-24.735,20.74C-24.735,20.74 -2.705,-25.258 -0.294,-31.843L0,-31.883L0,20.74ZM-15.017,-50.031L-69.313,54.017L-69.313,-49.536L-104.036,-49.536L-134.238,42.462L-134.732,42.462L-163.202,-49.536L-197.932,-49.536L-197.932,70.771L-175.135,70.771L-175.135,14.813C-175.135,8.396 -175.96,-23.615 -175.96,-23.615L-146.994,70.771L-123.621,70.771L-92.599,-23.449C-92.599,-23.449 -92.887,1.016 -92.97,4.526C-93.051,8.04 -93.094,11.14 -93.094,13.828L-93.094,70.771L-49.172,70.771L-35.022,42.134L0,42.134L-0.011,70.771L24.432,70.771L24.432,-50.031L-15.017,-50.031Z" style="fill:rgb(36,52,70);fill-rule:nonzero;"/>
                </g>
                <g transform="matrix(0.654171,0,0,0.654171,51.1761,646.927)">
                    <path d="M0,20.74L-24.736,20.74C-24.736,20.74 -2.71,-25.258 -0.295,-31.844L0,-31.883L0,20.74ZM-13.905,-50.031L-76.94,70.771L-49.176,70.771L-35.022,42.134L0,42.134L-0.01,70.771L24.428,70.771L24.428,-50.031L-13.905,-50.031Z" style="fill:rgb(204,0,0);fill-rule:nonzero;"/>
                </g>
            </g>
            <g transform="matrix(0.168271,0,0,0.168271,59.471,586.91)">
                <g transform="matrix(1,0,0,1,500.541,215.792)">
                    <path d="M0,253.824C0.624,249.29 -1.154,240.099 -0.699,235.56C2.034,208.462 11.575,185.155 22.981,129.219L31.159,168.053L20.365,174.002L16.268,189.883C16.268,189.883 21.516,190.466 22.215,191.868C23.266,193.969 19.238,200.774 19.238,200.774C19.238,200.774 40.396,210.482 47.013,207.75C52.765,205.375 57.355,190.659 60.378,173.083C64.139,151.22 65.468,124.933 63.584,112.474C63.005,108.645 54.945,103.412 55.054,99.542C56.217,58.689 57.756,5.858 39.211,-16.94C30.904,-27.149 10.683,-29.889 -5.725,-44.371C-15.483,-52.985 -15.955,-84.977 -17.449,-112.169C-18.042,-122.934 -50.995,-134.272 -65.536,-121.839C-80.912,-108.697 -74.654,-74.806 -74.654,-74.806C-74.654,-74.806 -62.57,-70.358 -61.187,-66.675C-60.371,-64.504 -64.012,-57.842 -64.012,-57.842C-108.069,-64.642 -151.047,-65.23 -158.632,-61.554C-172.393,-54.886 -180.335,60.077 -180.335,60.077L-180.335,72.311C-180.335,72.311 -188.314,82.662 -189.06,86.849C-189.201,87.657 -183.176,122.485 -178.555,152.92C-175.787,171.176 -177.856,188.691 -169.708,193.967C-162.936,198.349 -138.406,186.128 -138.406,186.128C-138.406,186.128 -142.908,178.472 -141.726,176.118C-140.936,174.536 -135.021,173.887 -135.021,173.887L-141.016,155.011L-155.604,148.771C-155.604,148.771 -139.737,104.62 -138.355,85.737C-138.074,81.873 -146.158,72.35 -146.158,72.35L-116.038,18.789C-116.038,18.789 -88.983,78.809 -89.262,100.24C-89.717,136.011 -123.775,201.905 -145.11,236.071C-152.262,247.522 -173.038,257.123 -179.333,269.074C-192.066,293.259 -188.253,370.205 -188.253,370.205C-188.253,370.205 -195.463,382.061 -199.299,388.096L-160.802,388.096L-168.746,365.757C-168.746,365.757 -135.67,290.453 -117.583,266.713C-115.008,263.32 -107.886,258.351 -104.879,255.334C-87.552,237.956 -39.623,182.035 -39.623,182.035C-39.623,182.035 -34.509,229.805 -38.455,245.063C-40.844,254.303 -55.504,268.796 -57.584,278.118C-59.313,285.87 -50.206,363.563 -50.206,363.563C-50.206,363.563 -62.204,379.983 -62.967,388.096L22.174,388.096L-26.722,364.728C-26.722,364.728 -3.721,280.915 0,253.824" style="fill:rgb(213,213,213);fill-rule:nonzero;stroke:black;stroke-width:5.94px;"/>
                </g>
                <g transform="matrix(1,0,0,1,458.8,197.723)">
                    <path d="M0,102.446C0,102.446 7.744,55.092 8.234,39.045C8.599,27.17 3.536,-8.244 3.536,-8.244L-5.016,-25.852C-5.016,-25.852 1.914,-26.67 7.236,-25.852C12.177,-25.092 16.617,-22.334 16.617,-22.334L6.558,-8.749C6.558,-8.749 20.443,27.454 23.207,40.043C26.843,56.601 32.202,107.481 32.202,107.481C32.202,107.481 27.381,114.756 25.552,117.012C22.937,120.235 14.191,129.116 14.191,129.116C14.191,129.116 9.612,118.007 7.719,114.484C6.025,111.335 0,102.446 0,102.446" style="fill:rgb(204,0,0);fill-rule:nonzero;"/>
                </g>
            </g>
        </g>
    </g>
</svg>
