<svg height="351pt" viewBox="0 0 555 351" width="555pt" xmlns:xlink="http://www.w3.org/1999/xlink" xmlns="http://www.w3.org/2000/svg"><g class="graph" id="graph0" transform="scale(1 1) rotate(0) translate(4 347)"><title>G</title><polygon fill="#fff" points="-4,4 -4,-347 551,-347 551,4 -4,4" stroke="transparent"/><g class="node" id="node1"><title>ClientApp</title><polygon fill="none" points="0,-0.5 0,-72.5 78,-72.5 78,-0.5 0,-0.5" stroke="#000"/><text font-family="arial" font-size="14" text-anchor="middle" x="39" y="-32.8">Client App</text></g><g class="node" id="node2"><title>Gateway</title><polygon fill="none" points="272.5,-54.5 272.5,-342.5 343.5,-342.5 343.5,-54.5 272.5,-54.5" stroke="#000"/><text font-family="arial" font-size="14" text-anchor="middle" x="308" y="-194.8">Gateway</text></g><g class="edge" id="edge1"><title>ClientApp->Gateway</title><path d="M87.12-65.09C137-95.35 215.07-142.72 263.53-172.12" fill="none" stroke="#000"/><polygon fill="#000" points="88.62,-61.91 78.25,-59.71 84.99,-67.89 88.62,-61.91" stroke="#000"/><polygon fill="#000" points="261.85,-175.2 272.21,-177.39 265.48,-169.21 261.85,-175.2" stroke="#000"/><text font-family="arial" font-size="14" text-anchor="middle" x="155" y="-144.3">Gateway Auth Only</text></g><g class="node" id="node5"><title>APIC</title><polygon fill="none" points="493,-27.5 493,-99.5 547,-99.5 547,-27.5 493,-27.5" stroke="#000"/><text font-family="arial" font-size="14" text-anchor="middle" x="520" y="-59.8">API C</text></g><g class="edge" id="edge2"><title>ClientApp->APIC</title><path d="M78.11-32.18C141.75-25.75 273.59-15.81 384-29.5c34.24-4.25 72.28-14.33 99.22-22.42" fill="none" stroke="red" stroke-dasharray="5,2"/><polygon fill="red" points="482.39,-55.33 492.98,-54.91 484.44,-48.63 482.39,-55.33" stroke="red"/><text font-family="arial" font-size="14" text-anchor="middle" x="308" y="-33.3">Not Authenticated Failure</text></g><g class="node" id="node3"><title>APIA</title><polygon fill="none" points="493,-231.5 493,-303.5 547,-303.5 547,-231.5 493,-231.5" stroke="#000"/><text font-family="arial" font-size="14" text-anchor="middle" x="520" y="-263.8">API A</text></g><g class="edge" id="edge3"><title>Gateway->APIA</title><path d="M353.18-213.02c38.7-12.71 94.21-30.95 130.14-42.76" fill="none" stroke="#000"/><polygon fill="#000" points="354.27,-209.69 343.68,-209.89 352.08,-216.34 354.27,-209.69" stroke="#000"/><polygon fill="#000" points="482.31,-259.13 492.91,-258.93 484.5,-252.48 482.31,-259.13" stroke="#000"/><text font-family="arial" font-size="14" text-anchor="middle" x="438.5" y="-256.3">Mutual Auth</text></g><g class="node" id="node4"><title>APIB</title><polygon fill="none" points="493,-140.5 493,-212.5 547,-212.5 547,-140.5 493,-140.5" stroke="#000"/><text font-family="arial" font-size="14" text-anchor="middle" x="520" y="-172.8">API B</text></g><g class="edge" id="edge4"><title>Gateway->APIB</title><path d="M353.72-193.82C392.24-189.78 447.13-184.03 482.9-180.28" fill="none" stroke="#000"/><polygon fill="#000" points="353.26,-190.34 343.68,-194.87 353.99,-197.31 353.26,-190.34" stroke="#000"/><polygon fill="#000" points="483.33,-183.76 492.91,-179.23 482.6,-176.79 483.33,-183.76" stroke="#000"/><text font-family="arial" font-size="14" text-anchor="middle" x="438.5" y="-191.3">Mutual Auth</text></g><g class="edge" id="edge5"><title>Gateway->APIC</title><path d="M352.12-170.78c39.03 25.09 95.81 61.59 132.04 84.88" fill="none" stroke="#000"/><polygon fill="#000" points="350.2,-167.86 343.68,-176.21 353.98,-173.74 350.2,-167.86" stroke="#000"/><polygon fill="#000" points="486.39,-88.63 492.91,-80.27 482.6,-82.74 486.39,-88.63" stroke="#000"/><text font-family="arial" font-size="14" text-anchor="middle" x="438.5" y="-138.3">Mutual Auth</text></g></g></svg>