<svg height="350pt" viewBox="0 0 555 350" width="555pt" xmlns:xlink="http://www.w3.org/1999/xlink" xmlns="http://www.w3.org/2000/svg"><g class="graph" id="graph0" transform="scale(1 1) rotate(0) translate(4 346)"><title>G</title><polygon fill="#fff" points="-4,4 -4,-346 551,-346 551,4 -4,4" stroke="transparent"/><g class="node" id="node1"><title>ClientApp</title><polygon fill="none" points="0,-0.5 0,-72.5 78,-72.5 78,-0.5 0,-0.5" stroke="#000"/><text font-family="arial" font-size="14" text-anchor="middle" x="39" y="-32.8">Client App</text></g><g class="node" id="node2"><title>Gateway</title><polygon fill="none" points="272.5,-53.5 272.5,-341.5 343.5,-341.5 343.5,-53.5 272.5,-53.5" stroke="#000"/><text font-family="arial" font-size="14" text-anchor="middle" x="308" y="-193.8">Gateway</text></g><g class="edge" id="edge1"><title>ClientApp-&gt;Gateway</title><path d="M87.12-64.91C137-94.99 215.07-142.07 263.53-171.28" fill="none" stroke="#000"/><polygon fill="#000" points="88.63,-61.73 78.25,-59.57 85.01,-67.73 88.63,-61.73" stroke="#000"/><polygon fill="#000" points="261.84,-174.36 272.21,-176.52 265.46,-168.36 261.84,-174.36" stroke="#000"/><text font-family="arial" font-size="14" text-anchor="middle" x="155" y="-144.3">Gateway Auth Only</text></g><g class="node" id="node5"><title>APIC</title><polygon fill="none" points="493,-27.5 493,-99.5 547,-99.5 547,-27.5 493,-27.5" stroke="#000"/><text font-family="arial" font-size="14" text-anchor="middle" x="520" y="-59.8">API C</text></g><g class="edge" id="edge2"><title>ClientApp-&gt;APIC</title><path d="M78.11-32.18C141.75-25.75 273.59-15.81 384-29.5c34.24-4.25 72.28-14.33 99.22-22.42" fill="none" stroke="red" stroke-dasharray="5,2"/><polygon fill="red" points="482.39,-55.33 492.98,-54.91 484.44,-48.63 482.39,-55.33" stroke="red"/><text font-family="arial" font-size="14" text-anchor="middle" x="308" y="-33.3">Not Authenticated Failure</text></g><g class="node" id="node3"><title>APIA</title><polygon fill="none" points="493,-230.5 493,-302.5 547,-302.5 547,-230.5 493,-230.5" stroke="#000"/><text font-family="arial" font-size="14" text-anchor="middle" x="520" y="-262.8">API A</text></g><g class="edge" id="edge3"><title>Gateway-&gt;APIA</title><path d="M353.18-212.02c38.7-12.71 94.21-30.95 130.14-42.76" fill="none" stroke="#000"/><polygon fill="#000" points="354.27,-208.69 343.68,-208.89 352.08,-215.34 354.27,-208.69" stroke="#000"/><polygon fill="#000" points="482.31,-258.13 492.91,-257.93 484.5,-251.48 482.31,-258.13" stroke="#000"/><text font-family="arial" font-size="14" text-anchor="middle" x="438.5" y="-255.3">Mutual Auth</text></g><g class="node" id="node4"><title>APIB</title><polygon fill="none" points="493,-139.5 493,-211.5 547,-211.5 547,-139.5 493,-139.5" stroke="#000"/><text font-family="arial" font-size="14" text-anchor="middle" x="520" y="-171.8">API B</text></g><g class="edge" id="edge4"><title>Gateway-&gt;APIB</title><path d="M353.72-192.82C392.24-188.78 447.13-183.03 482.9-179.28" fill="none" stroke="#000"/><polygon fill="#000" points="353.26,-189.34 343.68,-193.87 353.99,-196.31 353.26,-189.34" stroke="#000"/><polygon fill="#000" points="483.33,-182.76 492.91,-178.23 482.6,-175.79 483.33,-182.76" stroke="#000"/><text font-family="arial" font-size="14" text-anchor="middle" x="438.5" y="-190.3">Mutual Auth</text></g><g class="edge" id="edge5"><title>Gateway-&gt;APIC</title><path d="M352.12-169.99c39.03 24.91 95.81 61.14 132.04 84.26" fill="none" stroke="#000"/><polygon fill="#000" points="350.22,-167.04 343.68,-175.37 353.99,-172.94 350.22,-167.04" stroke="#000"/><polygon fill="#000" points="486.36,-88.48 492.91,-80.15 482.59,-82.58 486.36,-88.48" stroke="#000"/><text font-family="arial" font-size="14" text-anchor="middle" x="438.5" y="-138.3">Mutual Auth</text></g></g></svg>