<svg width="592pt" height="352pt" viewBox="0 0 592.16 352" xmlns="http://www.w3.org/2000/svg" xmlns:xlink="http://www.w3.org/1999/xlink"><g id="graph0" class="graph" transform="scale(1 1) rotate(0) translate(4 348)"><title>G</title><polygon fill="#fff" stroke="transparent" points="-4,4 -4,-348 588.1563,-348 588.1563,4 -4,4"/><g id="node1" class="node"><title>Application</title><polygon fill="none" stroke="#000" points="0,-.5 0,-72.5 84.4893,-72.5 84.4893,-.5 0,-.5"/><text text-anchor="middle" x="42.2446" y="-33.8" font-family="arial" font-size="14" fill="#000">Application</text></g><g id="node2" class="node"><title>Gateway</title><polygon fill="none" stroke="#000" points="283.3091,-55.5 283.3091,-343.5 354.5571,-343.5 354.5571,-55.5 283.3091,-55.5"/><text text-anchor="middle" x="318.9331" y="-196.8" font-family="arial" font-size="14" fill="#000">Gateway</text></g><g id="edge1" class="edge"><title>Application-&gt;Gateway</title><path fill="none" stroke="#000" d="M93.4802-66.6834c51.9316-30.5934 131.471-77.4509 180.8746-106.555"/><polygon fill="#000" stroke="#000" points="94.9614,-63.4939 84.5688,-61.4336 91.4084,-69.5251 94.9614,-63.4939"/><polygon fill="#000" stroke="#000" points="272.8227,-176.3981 283.2153,-178.4583 276.3758,-170.3668 272.8227,-176.3981"/><text text-anchor="middle" x="162.4097" y="-146.3986" font-family="arial" font-size="14" fill="#000">Gateway Auth Only</text></g><g id="node5" class="node"><title>ServiceC</title><polygon fill="none" stroke="#000" points="507.4736,-28.5 507.4736,-100.5 584.1563,-100.5 584.1563,-28.5 507.4736,-28.5"/><text text-anchor="middle" x="545.8149" y="-61.8" font-family="arial" font-size="14" fill="#000">Service C</text></g><g id="edge2" class="edge"><title>Application-&gt;ServiceC</title><path fill="none" stroke="red" stroke-dasharray="5,2" d="M84.5359-31.9559c66.7619 6.3425 200.5538 15.6816 313.0002 2.5545C431.3826-33.3526 468.7096-42.214 497.4451-50.0437"/><polygon fill="red" stroke="red" points="496.6592,-53.4579 507.231,-52.7604 498.5317,-46.7129 496.6592,-53.4579"/><text text-anchor="middle" x="318.9331" y="-34.3986" font-family="arial" font-size="14" fill="#000">Not Authenticated Failure</text></g><g id="node3" class="node"><title>ServiceA</title><polygon fill="none" stroke="#000" points="508.2461,-232.5 508.2461,-304.5 583.3838,-304.5 583.3838,-232.5 508.2461,-232.5"/><text text-anchor="middle" x="545.8149" y="-265.8" font-family="arial" font-size="14" fill="#000">Service A</text></g><g id="edge3" class="edge"><title>Gateway-&gt;ServiceA</title><path fill="none" stroke="#000" d="M364.3678-213.3177c38.8658-11.82 94.6126-28.7739 134.0369-40.7638"/><polygon fill="#000" stroke="#000" points="365.2187,-209.9183 354.633,-210.3572 363.1819,-216.6154 365.2187,-209.9183"/><polygon fill="#000" stroke="#000" points="497.4702,-257.4555 508.056,-257.0166 499.507,-250.7583 497.4702,-257.4555"/><text text-anchor="middle" x="452.5049" y="-254.3986" font-family="arial" font-size="14" fill="#000">Mutual Auth</text></g><g id="node4" class="node"><title>ServiceB</title><polygon fill="none" stroke="#000" points="507.8599,-141.5 507.8599,-213.5 583.77,-213.5 583.77,-141.5 507.8599,-141.5"/><text text-anchor="middle" x="545.8149" y="-174.8" font-family="arial" font-size="14" fill="#000">Service B</text></g><g id="edge4" class="edge"><title>Gateway-&gt;ServiceB</title><path fill="none" stroke="#000" d="M364.6038-195.0715C403.1755-191.3313 458.2495-185.9909 497.5409-182.181"/><polygon fill="#000" stroke="#000" points="364.2485,-191.5894 354.633,-196.0383 364.9241,-198.5567 364.2485,-191.5894"/><polygon fill="#000" stroke="#000" points="498.0576,-185.6474 507.6731,-181.1985 497.382,-178.6801 498.0576,-185.6474"/><text text-anchor="middle" x="452.5049" y="-194.3986" font-family="arial" font-size="14" fill="#000">Mutual Auth</text></g><g id="edge5" class="edge"><title>Gateway-&gt;ServiceC</title><path fill="none" stroke="#000" d="M363.251-173.1298C402.2096-149.9485 458.746-116.3081 498.5578-92.6191"/><polygon fill="#000" stroke="#000" points="361.437,-170.1364 354.633,-178.2577 365.0165,-176.152 361.437,-170.1364"/><polygon fill="#000" stroke="#000" points="500.4849,-95.5452 507.2889,-87.4239 496.9054,-89.5296 500.4849,-95.5452"/><text text-anchor="middle" x="452.5049" y="-144.3986" font-family="arial" font-size="14" fill="#000">Mutual Auth</text></g></g></svg>