<?xml version="1.0" encoding="UTF-8" standalone="no"?>
<!DOCTYPE svg PUBLIC "-//W3C//DTD SVG 1.1//EN"
 "http://www.w3.org/Graphics/SVG/1.1/DTD/svg11.dtd">
<!-- Generated by graphviz version 2.38.0 (20140413.2041)
 -->
<!-- Title: G Pages: 1 -->
<svg width="565pt" height="329pt"
 viewBox="0.00 0.00 564.80 328.94" xmlns="http://www.w3.org/2000/svg" xmlns:xlink="http://www.w3.org/1999/xlink">
<g id="graph0" class="graph" transform="scale(1 1) rotate(0) translate(4 324.941)">
<title>G</title>
<polygon fill="white" stroke="none" points="-4,4 -4,-324.941 560.805,-324.941 560.805,4 -4,4"/>
<!-- ClientApp -->
<g id="node1" class="node"><title>ClientApp</title>
<polygon fill="none" stroke="black" points="0,-14.4413 0,-86.4413 79.8203,-86.4413 79.8203,-14.4413 0,-14.4413"/>
<text text-anchor="middle" x="39.9102" y="-47.7413" font-family="arial" font-size="14.00">Client App</text>
</g>
<!-- Gateway -->
<g id="node2" class="node"><title>Gateway</title>
<polygon fill="none" stroke="black" points="278.64,-32.4413 278.64,-320.441 349.888,-320.441 349.888,-32.4413 278.64,-32.4413"/>
<text text-anchor="middle" x="314.264" y="-173.741" font-family="arial" font-size="14.00">Gateway</text>
</g>
<!-- ClientApp&#45;&gt;Gateway -->
<g id="edge1" class="edge"><title>ClientApp&#45;&gt;Gateway</title>
<path fill="none" stroke="black" d="M89.0245,-72.7006C140.101,-96.3302 220.118,-133.349 269.482,-156.186"/>
<polygon fill="black" stroke="black" points="90.4773,-69.5163 79.9318,-68.4941 87.5381,-75.8694 90.4773,-69.5163"/>
<polygon fill="black" stroke="black" points="268.082,-159.395 278.628,-160.417 271.022,-153.042 268.082,-159.395"/>
<text text-anchor="middle" x="157.741" y="-136.34" font-family="arial" font-size="14.00">Gateway Auth Only</text>
</g>
<!-- APIC -->
<g id="node5" class="node"><title>APIC</title>
<polygon fill="none" stroke="black" points="502.805,-5.44132 502.805,-77.4413 556.805,-77.4413 556.805,-5.44132 502.805,-5.44132"/>
<text text-anchor="middle" x="529.805" y="-38.7413" font-family="arial" font-size="14.00">API C</text>
</g>
<!-- ClientApp&#45;&gt;APIC -->
<g id="edge2" class="edge"><title>ClientApp&#45;&gt;APIC</title>
<path fill="none" stroke="red" stroke-dasharray="5,2" d="M80.0087,-38.8834C119.022,-27.9953 180.882,-12.4671 235.661,-6.34269 305.098,1.42053 323.555,2.46108 392.867,-6.34269 427.387,-10.7272 465.681,-21.1368 492.804,-29.4881"/>
<polygon fill="red" stroke="red" points="492.032,-32.9141 502.621,-32.5711 494.13,-26.2357 492.032,-32.9141"/>
<text text-anchor="middle" x="314.264" y="-11.34" font-family="arial" font-size="14.00">Not Authenticated Failure</text>
</g>
<!-- APIA -->
<g id="node3" class="node"><title>APIA</title>
<polygon fill="none" stroke="black" points="502.805,-209.441 502.805,-281.441 556.805,-281.441 556.805,-209.441 502.805,-209.441"/>
<text text-anchor="middle" x="529.805" y="-242.741" font-family="arial" font-size="14.00">API A</text>
</g>
<!-- Gateway&#45;&gt;APIA -->
<g id="edge3" class="edge"><title>Gateway&#45;&gt;APIA</title>
<path fill="none" stroke="black" d="M359.752,-190.816C399.294,-203.593 456.358,-222.032 493.016,-233.877"/>
<polygon fill="black" stroke="black" points="360.64,-187.425 350.048,-187.681 358.488,-194.086 360.64,-187.425"/>
<polygon fill="black" stroke="black" points="492.191,-237.289 502.782,-237.033 494.343,-230.628 492.191,-237.289"/>
<text text-anchor="middle" x="447.836" y="-235.34" font-family="arial" font-size="14.00">Mutual Auth</text>
</g>
<!-- APIB -->
<g id="node4" class="node"><title>APIB</title>
<polygon fill="none" stroke="black" points="502.805,-118.441 502.805,-190.441 556.805,-190.441 556.805,-118.441 502.805,-118.441"/>
<text text-anchor="middle" x="529.805" y="-151.741" font-family="arial" font-size="14.00">API B</text>
</g>
<!-- Gateway&#45;&gt;APIB -->
<g id="edge4" class="edge"><title>Gateway&#45;&gt;APIB</title>
<path fill="none" stroke="black" d="M360.026,-171.83C399.395,-167.774 455.979,-161.944 492.567,-158.175"/>
<polygon fill="black" stroke="black" points="359.637,-168.351 350.048,-172.858 360.354,-175.314 359.637,-168.351"/>
<polygon fill="black" stroke="black" points="493.194,-161.629 502.782,-157.122 492.476,-154.666 493.194,-161.629"/>
<text text-anchor="middle" x="447.836" y="-170.34" font-family="arial" font-size="14.00">Mutual Auth</text>
</g>
<!-- Gateway&#45;&gt;APIC -->
<g id="edge5" class="edge"><title>Gateway&#45;&gt;APIC</title>
<path fill="none" stroke="black" d="M358.664,-149.004C398.547,-123.79 456.918,-86.888 493.873,-63.5253"/>
<polygon fill="black" stroke="black" points="356.631,-146.149 350.048,-154.451 360.371,-152.065 356.631,-146.149"/>
<polygon fill="black" stroke="black" points="496.2,-66.1948 502.782,-57.8927 492.459,-60.278 496.2,-66.1948"/>
<text text-anchor="middle" x="447.836" y="-117.34" font-family="arial" font-size="14.00">Mutual Auth</text>
</g>
</g>
</svg>
