<?xml version="1.0" encoding="UTF-8" standalone="no"?>
<!DOCTYPE svg PUBLIC "-//W3C//DTD SVG 1.1//EN"
 "http://www.w3.org/Graphics/SVG/1.1/DTD/svg11.dtd">
<!-- Generated by graphviz version 2.40.1 (20161225.0304)
 -->
<!-- Title: G Pages: 1 -->
<svg width="565pt" height="352pt"
 viewBox="0.00 0.00 564.80 352.00" xmlns="http://www.w3.org/2000/svg" xmlns:xlink="http://www.w3.org/1999/xlink">
<g id="graph0" class="graph" transform="scale(1 1) rotate(0) translate(4 348)">
<title>G</title>
<polygon fill="#ffffff" stroke="transparent" points="-4,4 -4,-348 560.8047,-348 560.8047,4 -4,4"/>
<!-- ClientApp -->
<g id="node1" class="node">
<title>ClientApp</title>
<polygon fill="none" stroke="#000000" points="0,-.5 0,-72.5 79.8203,-72.5 79.8203,-.5 0,-.5"/>
<text text-anchor="middle" x="39.9102" y="-33.8" font-family="arial" font-size="14.00" fill="#000000">Client App</text>
</g>
<!-- Gateway -->
<g id="node2" class="node">
<title>Gateway</title>
<polygon fill="none" stroke="#000000" points="278.6401,-55.5 278.6401,-343.5 349.8882,-343.5 349.8882,-55.5 278.6401,-55.5"/>
<text text-anchor="middle" x="314.2642" y="-196.8" font-family="arial" font-size="14.00" fill="#000000">Gateway</text>
</g>
<!-- ClientApp&#45;&gt;Gateway -->
<g id="edge1" class="edge">
<title>ClientApp&#45;&gt;Gateway</title>
<path fill="none" stroke="#000000" d="M88.8738,-65.5904C140.0984,-96.0241 219.8225,-143.3901 269.4426,-172.8705"/>
<polygon fill="#000000" stroke="#000000" points="90.4823,-62.475 80.0974,-60.3762 86.9068,-68.493 90.4823,-62.475"/>
<polygon fill="#000000" stroke="#000000" points="267.9589,-176.0601 278.3438,-178.1589 271.5344,-170.0421 267.9589,-176.0601"/>
<text text-anchor="middle" x="157.7407" y="-141.3986" font-family="arial" font-size="14.00" fill="#000000">Gateway Auth Only</text>
</g>
<!-- APIC -->
<g id="node5" class="node">
<title>APIC</title>
<polygon fill="none" stroke="#000000" points="502.8047,-28.5 502.8047,-100.5 556.8047,-100.5 556.8047,-28.5 502.8047,-28.5"/>
<text text-anchor="middle" x="529.8047" y="-61.8" font-family="arial" font-size="14.00" fill="#000000">API C</text>
</g>
<!-- ClientApp&#45;&gt;APIC -->
<g id="edge2" class="edge">
<title>ClientApp&#45;&gt;APIC</title>
<path fill="none" stroke="#ff0000" stroke-dasharray="5,2" d="M80.0731,-31.9179C145.7795,-25.266 280.2204,-15.1947 392.8672,-29.4014 427.3051,-33.7446 465.4874,-44.0016 492.7657,-52.3125"/>
<polygon fill="#ff0000" stroke="#ff0000" points="492.0678,-55.7606 502.656,-55.386 494.1452,-49.076 492.0678,-55.7606"/>
<text text-anchor="middle" x="314.2642" y="-34.3986" font-family="arial" font-size="14.00" fill="#000000">Not Authenticated Failure</text>
</g>
<!-- APIA -->
<g id="node3" class="node">
<title>APIA</title>
<polygon fill="none" stroke="#000000" points="502.8047,-232.5 502.8047,-304.5 556.8047,-304.5 556.8047,-232.5 502.8047,-232.5"/>
<text text-anchor="middle" x="529.8047" y="-265.8" font-family="arial" font-size="14.00" fill="#000000">API A</text>
</g>
<!-- Gateway&#45;&gt;APIA -->
<g id="edge3" class="edge">
<title>Gateway&#45;&gt;APIA</title>
<path fill="none" stroke="#000000" d="M360.0542,-214.1586C399.5723,-226.8093 455.9347,-244.8524 492.6911,-256.619"/>
<polygon fill="#000000" stroke="#000000" points="360.9318,-210.7646 350.3408,-211.049 358.7976,-217.4313 360.9318,-210.7646"/>
<polygon fill="#000000" stroke="#000000" points="491.917,-260.0461 502.508,-259.7616 494.0513,-253.3794 491.917,-260.0461"/>
<text text-anchor="middle" x="447.8359" y="-258.3986" font-family="arial" font-size="14.00" fill="#000000">Mutual Auth</text>
</g>
<!-- APIB -->
<g id="node4" class="node">
<title>APIB</title>
<polygon fill="none" stroke="#000000" points="502.8047,-141.5 502.8047,-213.5 556.8047,-213.5 556.8047,-141.5 502.8047,-141.5"/>
<text text-anchor="middle" x="529.8047" y="-174.8" font-family="arial" font-size="14.00" fill="#000000">API B</text>
</g>
<!-- Gateway&#45;&gt;APIB -->
<g id="edge4" class="edge">
<title>Gateway&#45;&gt;APIB</title>
<path fill="none" stroke="#000000" d="M360.3275,-194.7984C399.6708,-190.7826 455.5616,-185.0779 492.2417,-181.334"/>
<polygon fill="#000000" stroke="#000000" points="359.9337,-191.3203 350.3408,-195.8177 360.6445,-198.2841 359.9337,-191.3203"/>
<polygon fill="#000000" stroke="#000000" points="492.9152,-184.7836 502.508,-180.2861 492.2043,-177.8197 492.9152,-184.7836"/>
<text text-anchor="middle" x="447.8359" y="-193.3986" font-family="arial" font-size="14.00" fill="#000000">Mutual Auth</text>
</g>
<!-- Gateway&#45;&gt;APIC -->
<g id="edge5" class="edge">
<title>Gateway&#45;&gt;APIC</title>
<path fill="none" stroke="#000000" d="M358.9663,-171.5016C399.0079,-146.4222 456.9711,-110.118 494.0206,-86.9127"/>
<polygon fill="#000000" stroke="#000000" points="356.9579,-168.6297 350.3408,-176.904 360.6736,-174.5621 356.9579,-168.6297"/>
<polygon fill="#000000" stroke="#000000" points="495.891,-89.8711 502.508,-81.5968 492.1753,-83.9387 495.891,-89.8711"/>
<text text-anchor="middle" x="447.8359" y="-140.3986" font-family="arial" font-size="14.00" fill="#000000">Mutual Auth</text>
</g>
</g>
</svg>
